<svg xmlns="http://www.w3.org/2000/svg" width="48" height="50" viewBox="0 0 48 50">
    <path fill="#0092DD" fill-rule="nonzero" d="M23.833 0C10.692 0 0 11.137 0 24.826c0 13.688 10.692 24.826 23.833 24.826 13.14 0 23.833-11.138 23.833-24.826C47.666 11.137 36.976 0 23.833 0zm10.632 19.144c.01.246.016.494.016.742 0 7.551-5.516 16.255-15.608 16.255-3.098 0-5.982-.943-8.409-2.565.43.053.866.08 1.308.08 2.571 0 4.936-.914 6.814-2.446-2.4-.046-4.427-1.698-5.125-3.969a5.315 5.315 0 0 0 2.477-.096c-2.51-.524-4.4-2.833-4.4-5.603l.001-.072c.74.427 1.585.685 2.484.714-1.471-1.023-2.44-2.773-2.44-4.755 0-1.048.27-2.03.742-2.874 2.705 3.458 6.748 5.732 11.306 5.972a5.935 5.935 0 0 1-.14-1.303c0-3.155 2.455-5.714 5.484-5.714 1.578 0 3.002.694 4.004 1.804 1.25-.256 2.422-.73 3.485-1.387a5.704 5.704 0 0 1-2.416 3.162c1.111-.138 2.17-.444 3.151-.899a11.3 11.3 0 0 1-2.734 2.954z" opacity=".5"/>
</svg>
