<?xml version="1.0" encoding="UTF-8"?>
<svg width="100px" height="100px" viewBox="0 0 100 100" version="1.1" xmlns="http://www.w3.org/2000/svg" xmlns:xlink="http://www.w3.org/1999/xlink">
    <!-- Generator: sketchtool 46.2 (44496) - http://www.bohemiancoding.com/sketch -->
    <title>951C4CD2-D200-4D2D-B883-4EEC559D75F4</title>
    <desc>Created with sketchtool.</desc>
    <defs></defs>
    <g id="Page-1" stroke="none" stroke-width="1" fill="none" fill-rule="evenodd">
        <g id="1.9-Forgot-password-failure" transform="translate(-670.000000, -491.000000)" fill-rule="nonzero" fill="#D80027">
            <g id="cancel" transform="translate(670.000000, 491.000000)">
                <path d="M55.0755601,49.9678208 L63.6295316,41.4138493 C65.1162933,39.9678208 65.1162933,37.6460285 63.6702648,36.2203666 C62.2446029,34.7947047 59.9228106,34.7947047 58.4767821,36.2203666 L49.9228106,44.7743381 L41.3688391,36.2203666 C39.9431772,34.7947047 37.6213849,34.7947047 36.1753564,36.2203666 C34.7496945,37.6460285 34.7496945,39.9678208 36.1753564,41.4138493 L44.7293279,49.9678208 L36.1753564,58.5217923 C34.7496945,59.9474542 34.7496945,62.2692464 36.1753564,63.7152749 C36.8881874,64.4281059 37.8250509,64.7947047 38.7619145,64.7947047 C39.698778,64.7947047 40.6356415,64.4281059 41.3484725,63.7152749 L49.902444,55.1613035 L58.4564155,63.7152749 C59.1692464,64.4281059 60.10611,64.7947047 61.0429735,64.7947047 C61.9798371,64.7947047 62.9167006,64.4281059 63.6295316,63.7152749 C65.0551935,62.289613 65.0551935,59.9678208 63.6295316,58.5217923 L55.0755601,49.9678208 Z" id="Shape"></path>
                <path d="M85.2588595,14.6317719 C83.8331976,13.20611 81.5114053,13.20611 80.0857434,14.6317719 L68.6804481,26.0167006 C67.2547862,27.4423625 67.2547862,29.7641548 68.6804481,31.2101833 C70.10611,32.6358452 72.4279022,32.6358452 73.8739308,31.2101833 L82.5704684,22.5136456 C96.6641548,39.2346232 95.8291242,64.3262729 80.0857434,80.0696538 C72.0409369,88.1144603 61.3281059,92.5543788 49.9431772,92.5543788 C38.5582485,92.5543788 27.8657841,88.1348269 19.800611,80.0900204 C3.1814664,63.4708758 3.1814664,36.4443992 19.800611,19.8252546 C30.004277,9.62158859 44.5663951,5.28350305 58.7211813,8.25702648 C60.6967413,8.66435845 62.6519348,7.40162933 63.0592668,5.42606925 C63.4665988,3.45050916 62.2038697,1.49531568 60.2283096,1.08798371 C43.6498982,-2.41507128 26.603055,2.65621181 14.6274949,14.6317719 C5.19775967,24.0615071 0.00427698574,36.607332 0.00427698574,49.9474542 C0.00427698574,63.2875764 5.19775967,75.8334012 14.6274949,85.2631365 C24.0572301,94.6928717 36.603055,99.8863544 49.9431772,99.8863544 C63.2832994,99.8863544 75.8291242,94.6928717 85.2588595,85.2631365 C94.6885947,75.8334012 99.8820774,63.2875764 99.8820774,49.9474542 C99.8820774,36.607332 94.6885947,24.0615071 85.2588595,14.6317719 Z" id="Shape"></path>
            </g>
        </g>
    </g>
</svg>