<?xml version="1.0" encoding="UTF-8"?>
<svg width="121px" height="108px" viewBox="0 0 121 108" version="1.1" xmlns="http://www.w3.org/2000/svg" xmlns:xlink="http://www.w3.org/1999/xlink">
    <!-- Generator: sketchtool 46.2 (44496) - http://www.bohemiancoding.com/sketch -->
    <title>73EF61D9-D4EF-4DEC-BE9E-2F3FBA153EF8</title>
    <desc>Created with sketchtool.</desc>
    <defs></defs>
    <g id="Page-1" stroke="none" stroke-width="1" fill="none" fill-rule="evenodd">
        <g id="1.8-Forgot-password-success" transform="translate(-656.000000, -483.000000)" fill-rule="nonzero" fill="#91DC5A">
            <g id="checked" transform="translate(656.000000, 483.000000)">
                <path d="M106.107998,50.1245775 C105.979881,48.3173422 104.43704,46.9607764 102.656603,47.0878945 C100.878525,47.2181305 99.5411922,48.7888783 99.6690741,50.5963535 C99.7485874,51.712834 99.788462,52.8583357 99.788462,54 C99.788462,80.1577828 78.8540539,101.438309 53.1219512,101.438309 C27.3898485,101.438309 6.4554404,80.1575429 6.4554404,54 C6.4554404,27.8424571 27.3898485,6.5619312 53.1221872,6.5619312 C63.3128643,6.5619312 72.9910701,9.84013858 81.1099189,16.0418219 C82.5352594,17.1302405 84.5582472,16.8383486 85.6291991,15.3899221 C86.7003869,13.9412556 86.4132425,11.8843412 84.988138,10.7959226 C75.7417106,3.73319416 64.7226324,0 53.1219512,0 C23.8306263,-0.000239845433 0,24.2243887 0,54 C0,83.7756113 23.8306263,108 53.1221872,108 C82.413748,108 106.243902,83.7758511 106.243902,54 C106.243902,52.7014768 106.197893,51.3976771 106.107998,50.1245775 Z" id="Shape"></path>
                <path d="M117.308782,7.75604252 C112.386684,2.74798583 104.377631,2.74798583 99.4555341,7.75604252 L52.8294954,55.1981553 L36.3009183,38.3798748 C31.3788209,33.3718181 23.369768,33.3718181 18.4476706,38.3798748 C13.5255732,43.3881722 13.5255732,51.5374865 18.4476706,56.5457839 L46.9141316,85.5107741 C48.5451322,87.1703383 50.6873138,88 52.8294954,88 C54.9719135,88 57.114095,87.1703383 58.7450957,85.5107741 L117.308782,25.9214703 C122.230406,20.9134136 122.230406,12.7645806 117.308782,7.75604252 Z M112.732518,21.2653038 L54.1685954,80.855089 C53.4305646,81.6060448 52.2288992,81.6060448 51.4908684,80.855089 L23.0244074,51.8898581 C20.6255709,49.4490111 20.6255709,45.4778511 23.0244074,43.0370041 C24.2237074,41.8162196 25.7988826,41.2063087 27.374531,41.2063087 C28.9501793,41.2063087 30.5255911,41.8164603 31.7246545,43.0370041 L48.7282206,60.3383513 C49.8239124,61.4529911 51.2808135,62.0667531 52.8297319,62.0667531 C54.3793599,62.0667531 55.836261,61.4527504 56.9317163,60.3381106 L104.032034,12.4124497 C106.430161,9.97160277 110.333682,9.97160277 112.732518,12.4124497 C115.131118,14.8532967 115.131118,18.8244568 112.732518,21.2653038 Z" id="Shape"></path>
            </g>
        </g>
    </g>
</svg>