<?xml version="1.0" encoding="UTF-8"?>
<svg width="10px" height="10px" viewBox="0 0 10 10" version="1.1" xmlns="http://www.w3.org/2000/svg" xmlns:xlink="http://www.w3.org/1999/xlink">
    <!-- Generator: sketchtool 46.2 (44496) - http://www.bohemiancoding.com/sketch -->
    <title>BB9CCBDA-2F2A-457B-9E99-054B4CCB9F94</title>
    <desc>Created with sketchtool.</desc>
    <defs></defs>
    <g id="Page-1" stroke="none" stroke-width="1" fill="none" fill-rule="evenodd">
        <g id="1.5-Change-password-state-2" transform="translate(-581.000000, -502.000000)" fill-rule="nonzero" fill="#609A45">
            <g id="Group-2" transform="translate(581.000000, 497.000000)">
                <g id="checked-symbol" transform="translate(0.000000, 5.000000)">
                    <path d="M9.32960423,2.4901832 C8.88247608,1.72417646 8.2759753,1.11767845 7.50994226,0.670575144 C6.7437724,0.223494644 5.90739102,0 5.00015962,0 C4.09301944,0 3.25638722,0.223494644 2.49035418,0.670575144 C1.72427554,1.11761004 1.11777476,1.72410805 0.670646612,2.4901832 C0.223495663,3.25630396 0,4.09293236 0,5 C0,5.90711325 0.223564073,6.74360483 0.670578202,7.50977119 C1.11768354,8.27577793 1.72418432,8.88227595 2.49026297,9.32942486 C3.25638722,9.77648255 4.09295103,10 5.00006841,10 C5.90718579,10 6.74384081,9.77648255 7.50991946,9.32942486 C8.2759525,8.88243557 8.88243047,8.27577793 9.32951301,7.50977119 C9.77652714,6.74367324 10,5.90706764 10,5 C10.0000228,4.09284115 9.77652714,3.25618994 9.32960423,2.4901832 Z M8.24215793,4.23828027 L4.70706813,7.77337675 C4.6245884,7.85592451 4.52482373,7.89715279 4.40756889,7.89715279 C4.2947379,7.89715279 4.19711674,7.85592451 4.11461421,7.77337675 L1.75775086,5.41666097 C1.67971779,5.33846863 1.64061004,5.24100754 1.64061004,5.12370763 C1.64061004,5.00221192 1.67958097,4.90231088 1.75775086,4.82416415 L2.35020477,4.23828027 C2.43277572,4.15582372 2.53030566,4.11459545 2.64322786,4.11459545 C2.75615006,4.11459545 2.85381683,4.15584653 2.93625095,4.23828027 L4.4076373,5.70961431 L7.06388587,3.05989957 C7.1463656,2.97742022 7.24398676,2.93616915 7.35684055,2.93616915 C7.46960313,2.93616915 7.56738391,2.97742022 7.64979523,3.05989957 L8.24224914,3.64587466 C8.32051025,3.72395299 8.35945837,3.82376281 8.35945837,3.94525852 C8.35945837,4.06249002 8.32051025,4.16015634 8.24215793,4.23828027 Z" id="Shape"></path>
                </g>
            </g>
        </g>
    </g>
</svg>