<svg xmlns="http://www.w3.org/2000/svg" width="28" height="28" viewBox="0 0 28 28">
    <g fill="#787878" fill-rule="nonzero">
        <path d="M27.28 4.2c.96-.96.96-2.52 0-3.48s-2.52-.96-3.48 0a2.445 2.445 0 0 0-.601.985 8.072 8.072 0 0 0-9.06.798L5.987 9.357c-.079-.06-.41-.184-.48-.221a4.087 4.087 0 0 0-4.787.743 2.46 2.46 0 0 0 0 3.48l4.119 4.118a4.1 4.1 0 0 0 .522 5.163 4.1 4.1 0 0 0 5.162.522l4.119 4.118c.96.96 2.52.96 3.48 0a4.087 4.087 0 0 0 .743-4.785c-.037-.072-.162-.403-.221-.481l6.855-8.155a8.072 8.072 0 0 0 .795-9.058c.36-.115.7-.315.985-.601zM6.522 21.48a2.461 2.461 0 0 1-.481-2.802l3.282 3.283a2.46 2.46 0 0 1-2.801-.481zm10.44 4.64c-.32.32-.84.32-1.16 0L1.883 12.2a.82.82 0 0 1 0-1.16 2.455 2.455 0 0 1 2.87-.447c.097.05.613.45.613.45h.002l11.59 11.592.002.001s.4.517.45.613c.495.955.316 2.11-.446 2.871zm7.27-13.303l-6.747 8.025L7.16 10.517l8.02-6.747a6.411 6.411 0 0 1 8.62.43 6.41 6.41 0 0 1 .432 8.617zm.728-9.777a.82.82 0 1 1 1.159-1.16.82.82 0 0 1-1.159 1.16z"/>
        <path d="M22.847 5.53a.8.8 0 0 0-1.127 0 .79.79 0 0 0 0 1.12 3.023 3.023 0 0 1 .204 4.082l-1.311 1.594a.79.79 0 0 0 .112 1.116.8.8 0 0 0 1.122-.111l1.311-1.595a4.597 4.597 0 0 0-.31-6.206z"/>
    </g>
</svg>
