<svg xmlns="http://www.w3.org/2000/svg" width="28" height="28" viewBox="0 0 28 28">
    <path fill="#0092DD" fill-rule="nonzero" d="M11.297 27.862l4.596.138.087-2.938a11.073 11.073 0 0 0 2.98-.997l1.805 2.308 3.608-2.88-1.804-2.306a11.276 11.276 0 0 0 1.645-2.7l2.854.597.932-4.548-2.852-.598a11.26 11.26 0 0 0-.45-3.137l2.562-1.393-2.18-4.09-2.563 1.393a11.119 11.119 0 0 0-2.345-2.107l1.077-2.733L16.976.154l-1.078 2.735a11.029 11.029 0 0 0-3.135-.097L11.849 0 7.483 1.458l.913 2.792a11.108 11.108 0 0 0-2.463 1.965L3.456 4.671 1.04 8.623l2.481 1.548c-.354.996-.57 2.04-.637 3.101L0 13.697l.665 4.597 2.88-.424a11.283 11.283 0 0 0 1.488 2.792l-1.936 2.196 3.434 3.09 1.938-2.198c.914.527 1.897.919 2.915 1.17l-.087 2.942zM8.834 16.794C7.3 13.913 8.37 10.308 11.22 8.757c2.85-1.551 6.42-.47 7.955 2.411 1.536 2.88.465 6.484-2.386 8.036-2.852 1.55-6.42.47-7.955-2.41z"/>
</svg>
